<svg width="48" height="49" viewBox="0 0 48 49" fill="none" xmlns="http://www.w3.org/2000/svg">
<g clip-path="url(#clip0_1_2200)">
<path d="M24 36.8308C30.6274 36.8308 36 31.4582 36 24.8308C36 18.2034 30.6274 12.8308 24 12.8308C17.3726 12.8308 12 18.2034 12 24.8308C12 31.4582 17.3726 36.8308 24 36.8308Z" fill="#3C5A9A"/>
<path d="M27.9019 16.5142H25.2436C23.6661 16.5142 21.9114 17.1776 21.9114 19.4643C21.9191 20.2611 21.9114 21.0242 21.9114 21.8829H20.0864V24.787H21.9679V33.1474H25.4251V24.7319H27.7071L27.9135 21.8748H25.3656C25.3656 21.8748 25.3713 20.6039 25.3656 20.2348C25.3656 19.3311 26.3058 19.3829 26.3624 19.3829C26.8098 19.3829 27.6798 19.3842 27.9032 19.3829V16.5142H27.9019Z" fill="white"/>
</g>
<defs>
<clipPath id="clip0_1_2200">
<rect width="24" height="24" fill="white" transform="translate(12 12.8308)"/>
</clipPath>
</defs>
</svg>
