<svg width="48" height="49" viewBox="0 0 48 49" fill="none" xmlns="http://www.w3.org/2000/svg">
<g clip-path="url(#clip0_1_2195)">
<path d="M13.8054 15.8004H33.6865V34.8645H13.8054V15.8004Z" fill="white"/>
<path d="M12.0239 14.5503C12.0239 13.6009 12.8166 12.8308 13.7939 12.8308H34.206C35.1833 12.8308 35.9759 13.6009 35.9759 14.5503V35.1123C35.9759 36.0617 35.1833 36.8308 34.206 36.8308H13.7939C12.8166 36.8308 12.0239 36.0617 12.0239 35.1123V14.5503Z" fill="#0A66C2"/>
<path d="M19.3029 32.9156V22.1108H15.7187V32.9156H19.3029ZM17.5118 20.6361C18.7613 20.6361 19.5395 19.8062 19.5395 18.7691C19.5164 17.7088 18.7613 16.9021 17.5358 16.9021C16.3093 16.9021 15.5081 17.7088 15.5081 18.7691C15.5081 19.8062 16.2853 20.6361 17.4887 20.6361H17.5118ZM21.2864 32.9156H24.8705V26.8819C24.8705 26.559 24.8936 26.2361 24.9888 26.0057C25.2476 25.3599 25.8372 24.692 26.828 24.692C28.1247 24.692 28.6432 25.6828 28.6432 27.1354V32.9146H32.2273V26.7199C32.2273 23.4014 30.4593 21.8573 28.1016 21.8573C26.1681 21.8573 25.3197 22.9397 24.8474 23.677H24.8715V22.1108H21.2864C21.3335 23.1248 21.2864 32.9156 21.2864 32.9156Z" fill="white"/>
</g>
<defs>
<clipPath id="clip0_1_2195">
<rect width="24" height="24" fill="white" transform="translate(12 12.8308)"/>
</clipPath>
</defs>
</svg>
