<svg width="44" height="45" viewBox="0 0 44 45" fill="none" xmlns="http://www.w3.org/2000/svg">
<path d="M22.0017 22.6914C22.4992 22.6914 22.9246 22.5142 23.2778 22.1599C23.631 21.8056 23.8076 21.3796 23.8076 20.882C23.8076 20.3844 23.6305 19.9591 23.2761 19.6059C22.9218 19.2527 22.4958 19.076 21.9983 19.076C21.5007 19.076 21.0753 19.2532 20.7221 19.6076C20.3689 19.9619 20.1923 20.3878 20.1923 20.8854C20.1923 21.383 20.3694 21.8084 20.7238 22.1616C21.0781 22.5148 21.5041 22.6914 22.0017 22.6914ZM22 30.3395C23.9564 28.5882 25.4535 26.9084 26.4913 25.3001C27.5291 23.6917 28.048 22.2831 28.048 21.0741C28.048 19.251 27.4689 17.7523 26.3105 16.578C25.1522 15.4036 23.7153 14.8164 22 14.8164C20.2846 14.8164 18.8477 15.4036 17.6894 16.578C16.531 17.7523 15.9519 19.251 15.9519 21.0741C15.9519 22.2831 16.4708 23.6917 17.5086 25.3001C18.5464 26.9084 20.0436 28.5882 22 30.3395ZM22 32.3356C19.4833 30.1548 17.5961 28.1254 16.3384 26.2472C15.0807 24.369 14.4519 22.6446 14.4519 21.0741C14.4519 18.7664 15.1984 16.8982 16.6913 15.4693C18.1843 14.0405 19.9538 13.326 22 13.326C24.0461 13.326 25.8156 14.0405 27.3086 15.4693C28.8015 16.8982 29.548 18.7664 29.548 21.0741C29.548 22.6446 28.9192 24.369 27.6615 26.2472C26.4038 28.1254 24.5166 30.1548 22 32.3356Z" fill="#333333"/>
</svg>
