<svg width="44" height="45" viewBox="0 0 44 45" fill="none" xmlns="http://www.w3.org/2000/svg">
<path d="M14.3077 30.3308C13.8026 30.3308 13.375 30.1558 13.025 29.8058C12.675 29.4558 12.5 29.0282 12.5 28.5231V17.1385C12.5 16.6334 12.675 16.2058 13.025 15.8558C13.375 15.5058 13.8026 15.3308 14.3077 15.3308H29.6923C30.1974 15.3308 30.625 15.5058 30.975 15.8558C31.325 16.2058 31.5 16.6334 31.5 17.1385V28.5231C31.5 29.0282 31.325 29.4558 30.975 29.8058C30.625 30.1558 30.1974 30.3308 29.6923 30.3308H14.3077ZM22 23.3884L14 18.2731V28.5231C14 28.6128 14.0288 28.6865 14.0865 28.7442C14.1442 28.8019 14.218 28.8308 14.3077 28.8308H29.6923C29.782 28.8308 29.8557 28.8019 29.9134 28.7442C29.9711 28.6865 30 28.6128 30 28.5231V18.2731L22 23.3884ZM22 21.8308L29.8461 16.8308H14.1538L22 21.8308ZM14 18.2731V16.8308V28.5231C14 28.6128 14.0288 28.6865 14.0865 28.7442C14.1442 28.8019 14.218 28.8308 14.3077 28.8308H14V18.2731Z" fill="#333333"/>
</svg>
