<svg width="32" height="33" viewBox="0 0 32 33" fill="none" xmlns="http://www.w3.org/2000/svg">
<g clip-path="url(#clip0_1_1560)">
<path d="M6.8421 29.8975C5.61397 29.8975 4.56657 29.4634 3.6999 28.5952C2.83324 27.7271 2.3999 26.6789 2.3999 25.4508C2.3999 24.2227 2.83377 23.1753 3.7015 22.3086C4.56921 21.4419 5.61682 21.0086 6.84434 21.0086C7.25916 21.0086 7.65546 21.0625 8.03324 21.1704C8.41101 21.2782 8.76657 21.428 9.0999 21.6197L14.6221 16.1197V11.9863C13.6592 11.7271 12.8629 11.2031 12.2332 10.4143C11.6036 9.62555 11.2888 8.71253 11.2888 7.67524C11.2888 6.44773 11.7229 5.40012 12.591 4.5324C13.4592 3.66467 14.5073 3.2308 15.7355 3.2308C16.9636 3.2308 18.011 3.66467 18.8777 4.5324C19.7443 5.40012 20.1777 6.44773 20.1777 7.67524C20.1777 8.71253 19.8629 9.62555 19.2332 10.4143C18.6036 11.2031 17.8073 11.7271 16.8443 11.9863V16.1197L22.3777 21.6197C22.7178 21.428 23.0748 21.2782 23.4489 21.1704C23.823 21.0625 24.2141 21.0086 24.6221 21.0086C25.8496 21.0086 26.8973 21.4427 27.765 22.3108C28.6327 23.179 29.0666 24.2271 29.0666 25.4553C29.0666 26.6834 28.6325 27.7308 27.7643 28.5975C26.8962 29.4641 25.848 29.8975 24.6199 29.8975C23.3918 29.8975 22.3444 29.4636 21.4777 28.5959C20.611 27.7282 20.1777 26.6806 20.1777 25.453C20.1777 25.0382 20.2316 24.6419 20.3395 24.2641C20.4473 23.8864 20.5971 23.5308 20.7888 23.1975L15.7332 18.1197L10.6777 23.1975C10.8694 23.5308 11.0192 23.8864 11.127 24.2641C11.2348 24.6419 11.2888 25.0382 11.2888 25.453C11.2888 26.6806 10.8547 27.7282 9.98654 28.5959C9.11838 29.4636 8.07024 29.8975 6.8421 29.8975ZM24.6195 27.6753C25.2361 27.6753 25.761 27.4595 26.1944 27.0279C26.6277 26.5963 26.8444 26.0722 26.8444 25.4556C26.8444 24.8391 26.6286 24.3141 26.197 23.8808C25.7654 23.4475 25.2413 23.2308 24.6247 23.2308C24.0082 23.2308 23.4832 23.4466 23.0499 23.8782C22.6166 24.3098 22.3999 24.8339 22.3999 25.4504C22.3999 26.067 22.6157 26.5919 23.0473 27.0253C23.4789 27.4586 24.003 27.6753 24.6195 27.6753ZM15.7306 9.89747C16.3472 9.89747 16.8721 9.68167 17.3055 9.25007C17.7388 8.81849 17.9555 8.29443 17.9555 7.67787C17.9555 7.06129 17.7397 6.53634 17.3081 6.10301C16.8765 5.66967 16.3524 5.45301 15.7358 5.45301C15.1193 5.45301 14.5943 5.66881 14.161 6.10041C13.7277 6.53201 13.511 7.05608 13.511 7.67264C13.511 8.28919 13.7268 8.81414 14.1584 9.24747C14.59 9.68081 15.1141 9.89747 15.7306 9.89747ZM6.84174 27.6753C7.45829 27.6753 7.98324 27.4595 8.41657 27.0279C8.8499 26.5963 9.06657 26.0722 9.06657 25.4556C9.06657 24.8391 8.85077 24.3141 8.41917 23.8808C7.98759 23.4475 7.46353 23.2308 6.84697 23.2308C6.23039 23.2308 5.70544 23.4466 5.2721 23.8782C4.83877 24.3098 4.6221 24.8339 4.6221 25.4504C4.6221 26.067 4.8379 26.5919 5.2695 27.0253C5.7011 27.4586 6.22518 27.6753 6.84174 27.6753Z" fill="#3563A8"/>
</g>
<defs>
<clipPath id="clip0_1_1560">
<rect width="32" height="32" fill="white" transform="translate(0 0.830811)"/>
</clipPath>
</defs>
</svg>
