<svg width="32" height="33" viewBox="0 0 32 33" fill="none" xmlns="http://www.w3.org/2000/svg">
<g clip-path="url(#clip0_1_1576)">
<path d="M22.9085 23.7197C23.4772 23.7197 23.9605 23.5142 24.3585 23.103C24.7566 22.6919 24.9556 22.2021 24.9556 21.6334C24.9556 21.0648 24.7566 20.5815 24.3585 20.1834C23.9605 19.7854 23.4772 19.5864 22.9085 19.5864C22.3399 19.5864 21.8501 19.7854 21.4389 20.1834C21.0278 20.5815 20.8223 21.0648 20.8223 21.6334C20.8223 22.2021 21.0278 22.6919 21.4389 23.103C21.8501 23.5142 22.3399 23.7197 22.9085 23.7197ZM22.8778 27.8308C23.6037 27.8308 24.263 27.6734 24.8556 27.3586C25.4482 27.0438 25.9445 26.6049 26.3445 26.0419C25.7964 25.7382 25.2374 25.5086 24.6676 25.353C24.0978 25.1975 23.5052 25.1197 22.8898 25.1197C22.2744 25.1197 21.6778 25.1975 21.1 25.353C20.5223 25.5086 19.9667 25.7382 19.4334 26.0419C19.8334 26.6049 20.326 27.0438 20.9111 27.3586C21.4963 27.6734 22.1519 27.8308 22.8778 27.8308ZM16 30.1642C12.926 29.4308 10.3797 27.6808 8.36114 24.9142C6.34263 22.1475 5.33337 19.0086 5.33337 15.4975V7.47525L16 3.47525L26.6667 7.47525V15.9975C26.3186 15.8346 25.9519 15.6883 25.5667 15.5586C25.1815 15.429 24.8075 15.3383 24.4445 15.2864V9.03082L16 5.89748L7.55557 9.03082V15.4975C7.55557 16.9716 7.78336 18.3568 8.23894 19.653C8.6945 20.9494 9.28709 22.1142 10.0167 23.1475C10.7464 24.1808 11.5704 25.0679 12.489 25.8087C13.4075 26.5494 14.3297 27.1123 15.2556 27.4975C15.426 27.9123 15.6668 28.3382 15.9778 28.7753C16.289 29.2123 16.589 29.5753 16.8778 29.8641C16.7371 29.9382 16.5908 29.9956 16.4389 30.0364C16.2871 30.0771 16.1408 30.1197 16 30.1642ZM22.9445 30.1642C21.1815 30.1642 19.676 29.5364 18.4278 28.2808C17.1797 27.0253 16.5556 25.5271 16.5556 23.7864C16.5556 22.0096 17.1796 20.495 18.4276 19.2427C19.6756 17.9903 21.1849 17.3642 22.9556 17.3642C24.7112 17.3642 26.2167 17.9903 27.4723 19.2427C28.7278 20.495 29.3556 22.0096 29.3556 23.7864C29.3556 25.5271 28.7278 27.0253 27.4723 28.2808C26.2167 29.5364 24.7075 30.1642 22.9445 30.1642Z" fill="#3563A8"/>
</g>
<defs>
<clipPath id="clip0_1_1576">
<rect width="32" height="32" fill="white" transform="translate(0 0.830811)"/>
</clipPath>
</defs>
</svg>
