<svg width="32" height="33" viewBox="0 0 32 33" fill="none" xmlns="http://www.w3.org/2000/svg">
<g clip-path="url(#clip0_1_1586)">
<path d="M12.3778 20.453V13.2308H19.6V20.453H12.3778ZM14.6 18.2308H17.3778V15.453H14.6V18.2308ZM12 28.8308V26.1641H8.88887C8.28887 26.1641 7.7685 25.9438 7.32777 25.503C6.88703 25.0623 6.66667 24.5419 6.66667 23.9419V20.8308H4V18.6086H6.66667V14.9641H4V12.7419H6.66667V9.63081C6.66667 9.03081 6.88703 8.51044 7.32777 8.06971C7.7685 7.62895 8.28887 7.40858 8.88887 7.40858H12V4.83081H14.2222V7.40858H17.8667V4.83081H20.0889V7.40858H23.2C23.8 7.40858 24.3204 7.62895 24.7611 8.06971C25.2019 8.51044 25.4222 9.03081 25.4222 9.63081V12.7419H28V14.9641H25.4222V18.6086H28V20.8308H25.4222V23.9419C25.4222 24.5419 25.2019 25.0623 24.7611 25.503C24.3204 25.9438 23.8 26.1641 23.2 26.1641H20.0889V28.8308H17.8667V26.1641H14.2222V28.8308H12ZM23.2 23.9419V9.63081H8.88887V23.9419H23.2Z" fill="#3563A8"/>
</g>
<defs>
<clipPath id="clip0_1_1586">
<rect width="32" height="32" fill="white" transform="translate(0 0.830811)"/>
</clipPath>
</defs>
</svg>
