<svg width="32" height="33" viewBox="0 0 32 33" fill="none" xmlns="http://www.w3.org/2000/svg">
<g clip-path="url(#clip0_1_1594)">
<path d="M9.33362 19.2308C8.67435 19.2308 8.10954 18.9956 7.63919 18.5252C7.16881 18.0549 6.93362 17.4901 6.93362 16.8308C6.93362 16.1715 7.16881 15.6067 7.63919 15.1364C8.10954 14.666 8.67435 14.4308 9.33362 14.4308C9.99289 14.4308 10.5577 14.666 11.0281 15.1364C11.4984 15.6067 11.7336 16.1715 11.7336 16.8308C11.7336 17.4901 11.4984 18.0549 11.0281 18.5252C10.5577 18.9956 9.99289 19.2308 9.33362 19.2308ZM9.33362 24.8308C7.1114 24.8308 5.22251 24.053 3.66695 22.4975C2.1114 20.9419 1.33362 19.053 1.33362 16.8308C1.33362 14.6086 2.1114 12.7197 3.66695 11.1641C5.22251 9.60859 7.1114 8.83081 9.33362 8.83081C10.8966 8.83081 12.2799 9.20489 13.4836 9.95304C14.6873 10.7012 15.6373 11.7864 16.3336 13.2086H28.1559L32.0003 17.053L26.2892 22.453L23.4447 20.3641L20.6003 22.453L17.9892 20.453H16.3336C15.7262 21.7419 14.8244 22.7938 13.6281 23.6086C12.4318 24.4234 11.0003 24.8308 9.33362 24.8308ZM9.33362 22.6086C10.6077 22.6086 11.7651 22.1975 12.8059 21.3753C13.8466 20.5531 14.5225 19.5049 14.8336 18.2308H18.7559L20.6003 19.6864L23.467 17.6086L26.0781 19.5975L28.8003 17.0086L27.2225 15.4308H14.8336C14.5522 14.216 13.8985 13.1827 12.8725 12.3308C11.8466 11.4789 10.667 11.053 9.33362 11.053C7.73362 11.053 6.37065 11.616 5.24472 12.7419C4.11878 13.8678 3.55582 15.2308 3.55582 16.8308C3.55582 18.4308 4.11878 19.7938 5.24472 20.9197C6.37065 22.0456 7.73362 22.6086 9.33362 22.6086Z" fill="#3563A8"/>
</g>
<defs>
<clipPath id="clip0_1_1594">
<rect width="32" height="32" fill="white" transform="translate(0 0.830811)"/>
</clipPath>
</defs>
</svg>
