<svg width="32" height="33" viewBox="0 0 32 33" fill="none" xmlns="http://www.w3.org/2000/svg">
<path d="M20.733 23.2085L22.3553 21.5863L17.1775 16.3863V9.87518H14.9553V17.2752L20.733 23.2085ZM15.9997 30.1641C14.1701 30.1641 12.4442 29.8141 10.8219 29.1141C9.19973 28.4141 7.7849 27.4604 6.57748 26.253C5.37008 25.0456 4.41638 23.6307 3.71638 22.0085C3.01638 20.3863 2.66638 18.6604 2.66638 16.8307C2.66638 15.0011 3.01638 13.2752 3.71638 11.653C4.41638 10.0308 5.37008 8.61594 6.57748 7.40851C7.7849 6.20111 9.19973 5.24741 10.8219 4.54741C12.4442 3.84741 14.1701 3.49741 15.9997 3.49741C17.8293 3.49741 19.5553 3.84741 21.1775 4.54741C22.7997 5.24741 24.2145 6.20111 25.4219 7.40851C26.6293 8.61594 27.583 10.0308 28.2831 11.653C28.983 13.2752 29.333 15.0011 29.333 16.8307C29.333 18.6604 28.983 20.3863 28.2831 22.0085C27.583 23.6307 26.6293 25.0456 25.4219 26.253C24.2145 27.4604 22.7997 28.4141 21.1775 29.1141C19.5553 29.8141 17.8293 30.1641 15.9997 30.1641ZM15.9997 27.9419C19.059 27.9419 21.6756 26.8548 23.8497 24.6807C26.0238 22.5067 27.1108 19.89 27.1108 16.8307C27.1108 13.7715 26.0238 11.1548 23.8497 8.98075C21.6756 6.80666 19.059 5.71961 15.9997 5.71961C12.9404 5.71961 10.3238 6.80666 8.14972 8.98075C5.97563 11.1548 4.88858 13.7715 4.88858 16.8307C4.88858 19.89 5.97563 22.5067 8.14972 24.6807C10.3238 26.8548 12.9404 27.9419 15.9997 27.9419Z" fill="#3563A8"/>
</svg>
